<?xml version="1.0" encoding="UTF-8"?><svg xmlns="http://www.w3.org/2000/svg" viewBox="0 0 512 512"><defs><style>.g{fill:#fff;}</style></defs><g id="a"/><g id="b"/><g id="c"/><g id="d"/><g id="e"/><g id="f"><g><g><path class="g" d="M256,173.97c-83.12,0-150.5,67.38-150.5,150.5s67.38,150.5,150.5,150.5,150.5-67.38,150.5-150.5-67.38-150.5-150.5-150.5Zm89.7,240.2c-23.96,23.96-55.82,37.16-89.7,37.16s-65.74-13.2-89.7-37.16c-23.96-23.96-37.16-55.82-37.16-89.7s13.2-65.74,37.16-89.7c23.96-23.96,55.82-37.16,89.7-37.16s65.74,13.2,89.7,37.16c23.96,23.96,37.16,55.82,37.16,89.7s-13.2,65.74-37.16,89.7Z"/><circle class="g" cx="196.12" cy="332.35" r="17.34"/><circle class="g" cx="315.1" cy="332.35" r="17.34"/><path class="g" d="M290.43,373.88c-22.85-9.09-46.02-9.09-68.86,0-4.04,1.61-6.02,6.19-4.41,10.23,1.61,4.04,6.19,6.02,10.23,4.41,19.25-7.66,37.96-7.66,57.21,0,.96,.38,1.94,.56,2.91,.56,3.13,0,6.1-1.88,7.32-4.97,1.61-4.04-.37-8.63-4.41-10.23Z"/><path class="g" d="M224.79,298.02c3.67-2.34,4.74-7.22,2.39-10.88-2.35-3.67-7.22-4.74-10.88-2.39-9.76,6.24-25.39,8.74-46.49,7.44-4.34-.27-8.08,3.04-8.35,7.38-.27,4.34,3.04,8.08,7.38,8.35,3.98,.25,7.79,.37,11.44,.37,19.12,0,33.75-3.38,44.51-10.26Z"/><path class="g" d="M350.55,281.91c-10.09-13.39-25.35-28.17-54.04-23.52-4.3,.69-7.21,4.74-6.52,9.04,.7,4.3,4.74,7.22,9.04,6.52,19.08-3.09,29.37,4.74,38.94,17.45,1.55,2.06,3.91,3.14,6.3,3.14,1.65,0,3.31-.52,4.73-1.59,3.48-2.62,4.17-7.56,1.55-11.03Z"/></g><path class="g" d="M252.5,99.76l-.11-21.72c0-.66,.51-1.2,1.17-1.22l2.12-.08c3.05,0,5.69-.64,7.93-1.9,2.24-1.27,3.98-3,5.2-5.2,1.23-2.2,1.84-4.65,1.84-7.36s-.59-5.24-1.78-7.36c-1.19-2.11-2.9-3.76-5.14-4.95-2.24-1.18-4.93-1.78-8.06-1.78-3.98,0-7.44,1.04-10.4,3.11-2.59,1.81-4.73,4.22-6.41,7.23-.38,.67-1.26,.87-1.85,.37l-6.46-5.39c-.44-.37-.58-1-.31-1.51,2.43-4.57,5.81-8.17,10.14-10.79,4.61-2.79,9.92-4.19,15.92-4.19,5.16,0,9.73,1.04,13.7,3.11,3.97,2.07,7.06,4.95,9.26,8.63,2.2,3.68,3.3,7.93,3.3,12.75,0,4.4-1,8.4-2.98,11.99-1.99,3.59-4.78,6.55-8.37,8.88-2.62,1.7-5.59,2.97-8.91,3.84-1.17,.3-2-1.15-1.16-2.02h0c.78-.82,2.15-.23,2.09,.9l-.78,14.72c-.03,.65-.57,1.15-1.21,1.15h-7.53c-.67,0-1.21-.54-1.22-1.21Zm4.83,30.39c-2.37,0-4.34-.8-5.9-2.41-1.57-1.61-2.35-3.59-2.35-5.96s.78-4.33,2.35-5.9,3.53-2.35,5.9-2.35,4.33,.78,5.9,2.35c1.56,1.57,2.35,3.53,2.35,5.9s-.78,4.36-2.35,5.96c-1.57,1.61-3.53,2.41-5.9,2.41Z"/><path class="g" d="M302.11,118.63l8.44-10.96c.25-.33,.73-.4,1.07-.16l1.1,.79c1.53,1.19,3.11,1.91,4.73,2.15,1.62,.24,3.17,.05,4.65-.58,1.48-.63,2.75-1.62,3.81-2.98s1.75-2.87,1.99-4.39c.23-1.53,.02-3.03-.65-4.5-.66-1.47-1.78-2.82-3.36-4.05-2-1.56-4.15-2.39-6.45-2.51-2.01-.1-4.03,.27-6.05,1.13-.45,.19-.97-.06-1.08-.54l-1.14-5.24c-.08-.36,.1-.73,.44-.88,3.01-1.35,6.12-1.83,9.32-1.45,3.41,.4,6.62,1.78,9.64,4.13,2.59,2.02,4.48,4.33,5.67,6.93,1.19,2.6,1.61,5.25,1.28,7.96-.33,2.71-1.45,5.28-3.33,7.7-1.72,2.21-3.79,3.83-6.19,4.86-2.41,1.03-4.97,1.42-7.69,1.19-1.98-.17-3.98-.69-5.98-1.56-.71-.3-.56-1.36,.21-1.47h0c.71-.11,1.17,.73,.7,1.27l-6.15,7.09c-.27,.31-.74,.36-1.06,.1l-3.79-2.95c-.34-.26-.4-.75-.14-1.08Zm-9.47,17.17c-1.19-.93-1.87-2.1-2.02-3.52-.16-1.42,.23-2.72,1.15-3.92s2.09-1.87,3.49-2.05,2.69,.2,3.88,1.13,1.87,2.09,2.05,3.49c.17,1.4-.2,2.69-1.13,3.88s-2.1,1.88-3.51,2.08c-1.42,.2-2.72-.17-3.91-1.1Z"/><path class="g" d="M206.46,120.26l-9.36-13.56c-.28-.41-.19-.97,.21-1.27l1.3-.96c1.91-1.3,3.29-2.83,4.15-4.58,.86-1.75,1.21-3.58,1.03-5.48-.17-1.9-.84-3.7-1.99-5.4s-2.61-3.03-4.26-3.85c-1.65-.82-3.43-1.12-5.34-.9-1.91,.22-3.85,1-5.81,2.33-2.49,1.7-4.22,3.83-5.19,6.4-.85,2.24-1.15,4.67-.92,7.27,.05,.58-.42,1.08-1,1.02l-6.35-.61c-.43-.04-.79-.38-.84-.82-.43-3.9,.15-7.6,1.74-11.1,1.69-3.72,4.42-6.86,8.19-9.43,3.23-2.21,6.54-3.51,9.92-3.91,3.38-.4,6.54,.08,9.49,1.45,2.95,1.37,5.46,3.56,7.52,6.58,1.88,2.76,2.97,5.69,3.26,8.79,.29,3.1-.19,6.15-1.45,9.15-.92,2.18-2.23,4.26-3.94,6.22-.6,.69-1.74,.13-1.6-.77h0c.14-.85,1.25-1.06,1.7-.33l5.81,9.56c.25,.42,.14,.96-.27,1.24l-4.72,3.22c-.42,.29-.99,.18-1.28-.24Zm16.02,16.98c-1.48,1.01-3.06,1.35-4.73,1.01-1.67-.34-3.01-1.25-4.02-2.73s-1.36-3.05-1.05-4.7,1.21-2.98,2.69-3.99,3.05-1.36,4.7-1.05c1.65,.31,2.98,1.21,3.99,2.69,1.01,1.48,1.37,3.07,1.08,4.74-.29,1.68-1.18,3.02-2.67,4.03Z"/></g></g></svg>